<svg width="40" height="41" viewBox="0 0 40 41" fill="none" xmlns="http://www.w3.org/2000/svg">
<path d="M38.722 5.24859C37.1224 -0.0907418 32.2559 0.720575 27.7203 0.73853C21.4588 0.763166 12.7224 -1.43591 7.13159 2.33653C3.29368 4.92623 1.77613 10.5576 0.873307 14.8218C-0.29409 20.3346 -0.362142 26.298 1.10283 31.7536C2.10278 35.4778 5.42185 40.3657 9.64621 39.597C12.3619 40.1428 15.0889 40.1989 17.8854 40.0574C21.4334 39.8784 25.5938 39.8121 28.9568 38.613C29.055 38.578 29.1366 38.5149 29.2096 38.4425C30.2376 38.3072 31.2673 38.1454 32.3002 37.9284C37.2835 36.8825 38.236 32.1008 38.8262 27.6726C39.822 20.1966 40.9216 12.587 38.722 5.24859ZM4.07483 11.8287C4.0604 11.9049 4.05999 11.9815 4.06865 12.0571C3.95193 12.6598 3.83583 13.2626 3.73416 13.8656C3.71663 13.9025 3.69457 13.9334 3.68281 13.9779C3.38339 15.1224 3.11407 16.2692 2.8664 17.4177C2.85897 17.4234 2.85052 17.4277 2.8433 17.4336C3.07757 15.8878 3.35678 14.5084 3.62507 13.4332C3.75994 12.8931 3.92038 12.3137 4.1004 11.722C4.09319 11.7588 4.08164 11.7917 4.07483 11.8287ZM8.21795 32.1457C8.13464 31.9847 8.05607 31.8208 7.9676 31.6638C8.11546 31.7191 8.25899 31.7807 8.40004 31.8473C8.71287 32.2398 9.01127 32.6432 9.29832 33.0551C8.91764 32.7745 8.56006 32.4684 8.21795 32.1457ZM12.8694 8.0216C12.8154 7.86314 12.7634 7.70404 12.7145 7.54391C13.05 7.40632 13.3847 7.26686 13.7207 7.13053C13.4515 7.43743 13.1694 7.73578 12.8694 8.0216ZM13.9405 11.2719C14.2935 10.8497 14.6245 10.4161 14.9386 9.97181C15.0206 9.91189 15.1046 9.85406 15.185 9.79205C14.8703 10.2708 14.5756 10.7656 14.2888 11.2665C14.1727 11.2681 14.0566 11.2706 13.9405 11.2719ZM17.8427 24.6515C17.8631 24.1398 17.8964 23.6306 17.8931 23.1139C17.8918 22.9368 17.8312 22.8076 17.7458 22.7105C17.8883 22.7044 18.0349 22.707 18.1743 22.6946C18.0234 23.3408 17.9223 23.9947 17.8427 24.6515ZM28.2421 20.1991C27.4277 20.2369 27.2743 21.1954 27.7599 21.6094C27.2745 23.1636 27.3362 24.8137 27.2601 26.4865C27.1431 29.0647 27.211 31.6448 27.3527 34.2203C24.9067 34.4095 22.4511 34.6542 19.9948 34.9091C20.1666 33.6157 19.8748 32.0363 19.8538 30.9306C19.8049 28.3586 19.6845 25.7157 20.0653 23.1636C20.1171 22.8166 20.0616 22.4932 19.849 22.2476C20.424 21.8257 20.3454 20.9678 19.6057 20.6716C18.3129 20.1542 16.5349 20.3406 15.0202 20.415C14.7194 18.9057 14.7278 17.2094 15.0433 15.7082C16.1394 15.6441 17.2348 15.5469 18.3286 15.4638C18.9314 15.418 19.1685 14.8953 19.0588 14.4576C19.0782 14.423 19.1027 14.3904 19.1167 14.3537C19.4745 13.4123 19.524 12.4337 19.8115 11.4669C20.332 9.71564 21.8073 8.27213 23.199 7.20569C25.8345 5.18554 29.2008 4.55669 32.3998 5.08511C32.5401 6.62674 32.7754 8.15167 32.9735 9.68432C32.5728 9.65593 32.1656 9.67179 31.8043 9.67847C30.6134 9.70081 29.4319 9.9002 28.2421 9.93966C27.6977 9.95782 27.2211 10.3919 27.2302 10.9641C27.2438 11.8377 27.4492 12.729 27.5467 13.6054L27.5469 13.6058C27.1961 14.1278 27.4203 15.012 28.2421 15.0381C29.1771 15.0677 30.111 15.0886 31.0464 15.0619C31.5277 15.0481 32.1299 15.0351 32.6914 14.9351C32.5246 15.7268 32.5376 16.5849 32.5081 17.381C32.4763 18.2409 32.4767 19.1174 32.5137 19.9911C32.1761 20.0087 31.8383 20.0331 31.5036 20.0486C30.4164 20.0989 29.3293 20.149 28.2421 20.1991ZM32.6727 23.5632C32.6401 23.2368 32.6232 22.9141 32.5838 22.5856C32.553 22.3257 32.379 22.1197 32.166 22.0019C32.3376 22.0132 32.5091 22.0261 32.6807 22.032C32.6904 22.1103 32.6953 22.1898 32.7056 22.2677C32.7306 22.4535 32.829 22.5923 32.9622 22.6869C32.8622 22.979 32.7628 23.2713 32.6727 23.5632ZM36.2714 28.2812C36.0237 30.1337 35.6104 31.555 34.972 32.6497C35.4485 31.1393 35.8929 29.6272 36.2953 28.1095C36.2874 28.1657 36.2786 28.2244 36.2714 28.2812Z" fill="#FFD4E4"/>
</svg>
