<svg width="43" height="42" viewBox="0 0 43 42" fill="none" xmlns="http://www.w3.org/2000/svg">
<path d="M24.675 19.2955C24.063 18.0809 22.0944 16.6664 20.8297 17.6657C19.003 17.6741 17.9316 19.691 18.0339 21.3763C18.1912 23.9676 21.1639 24.9986 23.4623 24.1026C25.5269 23.2975 25.5059 20.9426 24.675 19.2955ZM21.8813 23.5262C22.1747 23.4841 22.4679 23.4008 22.7518 23.2764C22.7837 23.3019 22.8176 23.3233 22.8517 23.3456C22.5399 23.4602 22.2112 23.5189 21.8813 23.5262Z" fill="#FFD4E4"/>
<path d="M30.6659 13.7783C30.6804 13.3521 30.6547 12.9251 30.6237 12.5251C30.6039 12.2691 30.4149 12.0559 30.1318 12.0552C29.5852 12.0536 27.8248 11.8502 27.2241 12.3319C27.0563 12.156 26.6959 12.2181 26.6747 12.5253C26.5915 13.7235 26.535 14.9207 26.526 16.1216C26.5245 16.3094 26.668 16.5119 26.8683 16.551C27.1221 16.6004 27.3862 16.6393 27.6512 16.6598C27.6691 16.688 27.6908 16.7146 27.7175 16.7385C28.3329 17.2968 29.5416 16.8707 30.2595 16.764C30.4161 16.7405 30.5589 16.584 30.5949 16.4434C30.8163 15.5881 30.8678 14.6434 30.6659 13.7783Z" fill="#FFD4E4"/>
<path d="M31.2524 20.1183C31.2188 19.853 31.0045 19.7051 30.7833 19.6758C31.0658 19.3932 30.8057 18.7952 30.2997 18.9101C29.5904 19.071 28.8636 19.0742 28.1488 18.9388C27.8857 18.889 27.7003 19.0528 27.6488 19.243C27.562 19.3434 27.5189 19.4797 27.5639 19.6442C28.6978 23.7848 26.3781 27.152 21.7913 27.2332C17.4843 27.3097 14.7277 24.1716 15.6037 20.18C15.6342 20.0412 15.6156 19.8558 15.4874 19.76C15.4874 19.76 15.4709 19.7454 15.45 19.7272C15.5415 19.575 15.5474 19.375 15.3894 19.2071C15.3751 19.1921 15.3582 19.1807 15.3427 19.1673C15.3761 19.0919 15.402 19.0114 15.4109 18.9197C15.4283 18.7393 15.2392 18.5871 15.0626 18.5873C14.8746 18.5875 14.7208 18.6414 14.57 18.7113C14.5285 18.6944 14.4844 18.6806 14.4346 18.6744C13.5012 18.5582 12.6434 18.8146 11.7138 18.8815C11.4657 18.8992 11.2535 19.0671 11.255 19.3195C11.2635 20.6514 11.2697 21.9834 11.2817 23.3154C11.2793 23.4032 11.3069 23.4714 11.3451 23.5299C11.3865 25.4391 11.9927 27.4455 12.8271 28.7076C14.5595 31.3278 18.6794 31.1183 21.5155 31.2714C23.9386 31.402 29.127 32.0327 30.5957 29.5515C32.0893 27.0289 31.5975 22.8719 31.2524 20.1183ZM28.5874 27.5777C28.58 27.5711 28.5733 27.5627 28.5652 27.5561C28.6925 27.1158 28.8022 26.6728 28.8908 26.2243C28.9144 26.1647 28.9385 26.1051 28.9628 26.0455C28.9523 26.127 28.9392 26.2077 28.9275 26.2887C28.8081 26.7169 28.6947 27.1467 28.5874 27.5777ZM27.6287 30.1406C27.853 30.0291 28.0678 29.893 28.2685 29.7267L28.3309 29.7465C28.3812 29.7624 28.4282 29.7679 28.4742 29.7684C28.5042 29.8089 28.5423 29.843 28.585 29.8719C28.2735 30.0252 27.9295 30.1424 27.5632 30.2305C27.5894 30.2027 27.6123 30.1743 27.6287 30.1406ZM14.7311 19.9506C14.6646 20.1748 14.6131 20.3955 14.5695 20.6139C14.5554 20.4726 14.5378 20.3311 14.5159 20.1893C14.6038 20.0938 14.6441 19.9588 14.6243 19.8339C14.6732 19.846 14.7215 19.8596 14.7668 19.8778C14.7544 19.9015 14.7392 19.9231 14.7311 19.9506ZM21.5637 30.3383C21.8921 30.3178 22.221 30.2983 22.5497 30.2755C22.5502 30.3103 22.5519 30.3438 22.5588 30.3784C22.3578 30.3672 22.1655 30.3579 21.9855 30.3513C21.849 30.3458 21.7067 30.3422 21.5637 30.3383Z" fill="#FFD4E4"/>
<path d="M37.0286 6.70713C34.6601 3.86209 31.445 1.68257 27.8027 0.615455C24.0687 -0.478739 19.8006 0.0256962 16.1123 1.0398C8.77587 3.05754 3.15507 8.64137 1.18033 15.6436C0.432859 18.2934 0.282221 20.9312 0.637365 23.485C0.637365 23.4955 0.633074 23.5037 0.633789 23.5148C0.683367 24.085 0.79277 24.6231 0.939594 25.1417C1.6823 28.379 3.24707 31.45 5.49306 34.194C9.37294 38.9343 16.0523 42.9384 22.5206 41.4879C22.5168 41.7901 22.7664 42.0945 23.1523 41.9723C30.881 39.528 37.9942 35.3139 41.0987 27.8104C44.0633 20.6477 41.9227 12.5854 37.0286 6.70713ZM1.51354 23.1544C1.44776 22.6158 1.40652 22.0759 1.39246 21.5358C1.40033 21.5897 1.40867 21.6436 1.41725 21.6975C1.44943 22.2022 1.50592 22.7012 1.57337 23.1963C1.55406 23.1815 1.53309 23.1685 1.51354 23.1544ZM3.70971 20.6236C3.68564 20.7044 3.66109 20.7847 3.63606 20.865C3.62915 20.7066 3.62176 20.5483 3.62033 20.3895C3.65179 20.2846 3.68254 20.1797 3.71329 20.0746C3.70971 20.2575 3.70781 20.4404 3.70971 20.6236ZM20.6901 38.3241C20.3707 38.2634 20.0513 38.2031 19.7319 38.1437C20.0535 38.1701 20.3748 38.2035 20.6963 38.234C20.6899 38.2643 20.6906 38.2943 20.6901 38.3241ZM33.3778 35.8001C33.5589 35.7312 33.7391 35.6565 33.9179 35.5767C33.7694 35.6914 33.6235 35.809 33.4719 35.9207C33.4471 35.8761 33.4147 35.8356 33.3778 35.8001ZM22.4498 7.80247C22.6372 7.8102 22.8236 7.82226 23.01 7.83591C23.0095 7.83728 23.0088 7.83842 23.0083 7.83955C22.5993 7.85889 22.191 7.88642 21.7839 7.92419C22.0063 7.88574 22.2279 7.8441 22.4498 7.80247ZM6.59233 30.0675C6.49723 29.7589 6.40332 29.4497 6.3056 29.1421C6.46863 29.5093 6.64 29.8736 6.81614 30.2361C6.74249 30.1797 6.66717 30.1237 6.59233 30.0675ZM7.60985 11.8744C7.53835 11.9235 7.4647 11.9699 7.39129 12.0168C7.3603 11.9934 7.32884 11.9708 7.29261 11.9551C7.45707 11.8141 7.61605 11.6687 7.77598 11.5235C7.71687 11.6382 7.66253 11.7558 7.60985 11.8744ZM8.58304 27.1974C8.58662 27.0413 8.58686 26.8855 8.59115 26.7291C8.60473 26.7517 8.6145 26.7756 8.62833 26.7976C8.63453 26.8074 8.64263 26.8124 8.64978 26.8206C8.68887 27.0775 8.73797 27.3321 8.7947 27.5844C8.72319 27.4561 8.65383 27.3264 8.58304 27.1974ZM11.1734 30.3612C9.00325 28.2008 9.40059 24.3801 9.58197 21.6598C9.76431 18.9285 10.2193 16.0866 9.76765 13.3572C9.81985 13.2236 9.88778 13.103 9.95332 12.9804C10.2765 12.6311 10.5773 12.2662 10.8457 11.88C12.8061 10.2318 16.4541 10.177 18.7852 10.1021C22.1066 9.99563 25.6726 9.68574 28.9404 10.3299C32.9051 11.1114 33.6545 14.5199 33.609 17.9201C33.562 21.4388 33.7415 25.1191 32.7333 28.5353C31.4476 32.89 26.6453 32.7553 22.7008 32.7039C20.6388 32.677 18.5793 32.5153 16.528 32.3244C14.5251 32.1382 12.6195 31.8013 11.1734 30.3612ZM17.3312 40.4986C18.2258 40.6201 19.1232 40.7225 20.0229 40.8124C19.1091 40.783 18.21 40.6781 17.3312 40.4986Z" fill="#FFD4E4"/>
</svg>
