<svg width="105" height="67" viewBox="0 0 105 67" fill="none" xmlns="http://www.w3.org/2000/svg">
<path d="M102.5 9.5L99 6L96 3H6L3 6L1.5 7L0.77253 41.2124L2.312 41.8281L3 42L6 45L9 48L19 51L22 54H25V61H32L35 58L38 55L41 50L41.4146 48.9097H95.8436L99 47L102 44L102.5 9.5Z" fill="white"/>
<path fill-rule="evenodd" clip-rule="evenodd" d="M6 0H96V3H99V6H102V9H105V44H102V47H99V50H41V55H38V58H35V61H32V64H25V67H22V64H25V61H22V54H19V51H9V48H6V45H3V42H0V6H3V3H6V0ZM6 3V6H3V42H6V45H9V48H19V51H22V54H25V61H32V58H35V55H38V50H41V47H99V44H102V9H99V6H96V3H6Z" fill="#1F1F1F"/>
</svg>
