<svg width="76" height="87" viewBox="0 0 76 87" fill="none" xmlns="http://www.w3.org/2000/svg">
<path d="M24.6124 67.4177L15.7227 76.2042C15.7227 77.9821 19.8712 85.6865 23.4271 85.6865C26.2718 85.6865 25.4026 80.9454 24.6124 78.5748L31.1315 72.0556L24.6124 67.4177Z" fill="#FDA3C4"/>
<path d="M38.8359 70.2777L44.5764 61.1254L53.4321 64.8542L46.5403 72.0556C47.3305 74.2287 48.0812 78.8118 44.7624 79.7601C41.4435 80.7083 39.4285 73.8336 38.8359 70.2777Z" fill="#FDA3C4"/>
<path d="M35.28 43.0159C34.8059 42.5418 29.9462 48.7449 27.5756 51.9056C26.983 52.8933 25.7977 55.3428 25.7977 57.2392C25.7977 59.1357 32.5143 60.7953 35.8727 61.388L42.9844 57.2392C41.7991 56.0539 39.5471 53.2092 40.0212 51.3128C40.4953 49.4163 44.5648 48.9422 46.5403 48.9422C42.9844 47.1643 35.7541 43.4901 35.28 43.0159Z" fill="#FDA3C4"/>
<path d="M24.6124 67.4177L15.7227 76.2042C15.7227 77.9821 19.8712 85.6865 23.4271 85.6865C26.2718 85.6865 25.4026 80.9454 24.6124 78.5748L31.1315 72.0556L24.6124 67.4177Z" stroke="#1F1F1F"/>
<path d="M38.8359 70.2777L44.5764 61.1254L53.4321 64.8542L46.5403 72.0556C47.3305 74.2287 48.0812 78.8118 44.7624 79.7601C41.4435 80.7083 39.4285 73.8336 38.8359 70.2777Z" stroke="#1F1F1F"/>
<path d="M35.28 43.0159C34.8059 42.5418 29.9462 48.7449 27.5756 51.9056C26.983 52.8933 25.7977 55.3428 25.7977 57.2392C25.7977 59.1357 32.5143 60.7953 35.8727 61.388L42.9844 57.2392C41.7991 56.0539 39.5471 53.2092 40.0212 51.3128C40.4953 49.4163 44.5648 48.9422 46.5403 48.9422C42.9844 47.1643 35.7541 43.4901 35.28 43.0159Z" stroke="#1F1F1F"/>
<path d="M37.0613 24.6435C35.876 21.4827 33.8594 12.885 37.0613 8.69033C39.8443 5.04451 39.7724 0.999852 41.5499 1C43.3274 1.00015 44.3464 4.8505 44.3464 6.82614C49.9022 6.82614 52.9691 8.69033 54.8335 9.62268C56.6979 10.555 57.8631 4.00026 60.1935 4.72873C61.6478 5.18332 61.5997 10.0253 60.9816 15.1616C65.0587 10.2229 72.3119 3.26871 74.9908 7.45717C76.5067 9.82733 64.579 21.2853 58.4842 24.6435C57.3312 27 55.7603 28.7837 53.6555 29.3851L50.6922 32.3483C52.9236 34.5214 57.606 38.986 58.4842 39.4601C59.582 40.0528 63.8821 37.395 66.2527 35.0244C68.6233 32.6538 72.6202 35.9042 69.657 39.4601C66.6937 43.016 63.7305 47.7572 57.2114 45.3866C54.3429 44.3435 51.8211 43.0136 49.9022 41.8307L46.5437 48.541C49.7045 49.5288 56.0261 53.2095 56.0261 56.0542C56.0261 58.8989 53.6555 62.7709 52.4702 64.3513L45.3584 61.3881C45.7932 60.27 46.9192 58.0973 48.1069 57.8544C46.4684 57.8835 40.2159 57.7848 39.4319 56.0542C37.8212 52.4983 39.772 49.8907 41.5499 49.5351L46.5437 48.541L28.1717 44.2013L37.0613 24.6435Z" fill="white"/>
<path d="M22.2071 53.668C27.4224 50.8233 27.579 51.9057 28.1717 52.4983C28.7643 53.091 29.1985 54.1581 26.9863 56.0542C22.8378 59.6101 19.6436 62.9899 9.15659 60.6594C3.9295 59.4978 1.00006 50.5766 1 48.541C0.999823 42.6146 6.05807 41.3166 5.65108 45.3866C5.05843 51.3131 7.90747 55.299 9.62268 56.0542C13.6606 57.8322 15.688 57.2239 22.2071 53.668Z" fill="white"/>
<path d="M28.1717 64.3513V59.6101L35.7238 61.3881C35.9213 62.9685 35.7575 64.5884 35.2834 65.5366C34.8092 66.4848 31.925 69.8827 30.5422 71.4631L25.2084 67.9072L28.1717 64.3513Z" fill="white"/>
<path d="M37.0613 24.6435C35.876 21.4827 33.8594 12.885 37.0613 8.69033C39.8443 5.04451 39.7724 0.999852 41.5499 1C43.3274 1.00015 44.3464 4.8505 44.3464 6.82614C49.9022 6.82614 52.9691 8.69033 54.8335 9.62268C56.6979 10.555 57.8631 4.00026 60.1935 4.72873C61.6478 5.18332 61.5997 10.0253 60.9816 15.1616M37.0613 24.6435C43.2248 22.2726 50.6922 26.8167 53.6555 29.3851M37.0613 24.6435L28.1717 44.2013L46.5437 48.5411M53.6555 29.3851C55.7603 28.7837 57.3312 27 58.4842 24.6435M53.6555 29.3851L50.6922 32.3483C52.9236 34.5214 57.606 38.986 58.4842 39.4601C59.582 40.0528 63.8821 37.395 66.2527 35.0244C68.6233 32.6538 72.6202 35.9042 69.657 39.4601C66.6937 43.016 63.7305 47.7572 57.2114 45.3866C54.3429 44.3435 51.8211 43.0136 49.9022 41.8307M58.4842 24.6435C64.579 21.2853 76.5067 9.82733 74.9908 7.45717C72.3119 3.26871 65.0587 10.2229 60.9816 15.1616M58.4842 24.6435C59.811 21.9317 60.5845 18.4615 60.9816 15.1616M49.9022 41.8307C48.3323 40.8629 47.166 39.9935 46.5437 39.4601L49.9022 41.8307ZM49.9022 41.8307L46.5437 48.5411M46.5437 48.5411L41.5499 49.5351C39.772 49.8907 37.8212 52.4983 39.432 56.0542C40.4101 58.2136 49.9022 57.8322 48.3217 57.8322C47.0572 57.8322 45.8193 60.2028 45.3584 61.3881L52.4702 64.3513C53.6555 62.7709 56.0261 58.8989 56.0261 56.0542C56.0261 53.2095 49.7045 49.5288 46.5437 48.5411ZM28.1717 52.4983C27.579 51.9057 27.4224 50.8233 22.2071 53.6681C15.688 57.2239 13.6606 57.8322 9.62268 56.0542C7.90747 55.299 5.05843 51.3131 5.65108 45.3866C6.05807 41.3166 0.999823 42.6146 1 48.5411C1.00006 50.5766 3.9295 59.4978 9.15659 60.6594C19.6436 62.9899 22.8378 59.6101 26.9863 56.0542C29.1985 54.1581 28.7643 53.091 28.1717 52.4983ZM28.1717 59.6101V64.3513L25.2084 67.9072L30.5422 71.4631C31.925 69.8827 34.8092 66.4848 35.2834 65.5366C35.7575 64.5884 35.9213 62.9685 35.7238 61.3881L28.1717 59.6101Z" stroke="#1F1F1F"/>
<path d="M8.61217 39.4618C3.79457 37.3552 4.26053 32.9274 5.64894 29.9794C11.5754 31.1659 18.0945 25.83 22.2431 22.8667C26.3916 19.9035 35.7217 16.8073 35.7217 19.1778L36.4666 24.1046C43.7399 22.8643 49.9057 25.6964 53.6533 29.9794C56.9722 33.7724 55.0362 35.1157 53.6533 35.3133L51.2828 31.7574C42.9857 30.5721 42.3931 37.0912 36.4666 42.425C31.7254 46.6921 27.3793 52.1049 25.7989 54.278C20.4651 49.3392 13.2001 41.4679 8.61217 39.4618Z" fill="#F40000"/>
<path d="M36.4666 24.1046C43.7399 22.8643 49.9057 25.6964 53.6533 29.9794C56.9722 33.7724 55.0362 35.1157 53.6533 35.3133L51.2828 31.7574C42.9857 30.5721 42.3931 37.0912 36.4666 42.425C31.7254 46.6921 27.3793 52.1049 25.7989 54.278C20.4651 49.3392 13.2001 41.4679 8.61217 39.4618C3.79457 37.3552 4.26053 32.9274 5.64894 29.9794C11.5754 31.1659 18.0945 25.83 22.2431 22.8667C26.3916 19.9035 35.7217 16.8073 35.7217 19.1778L36.4666 24.1046ZM36.4666 24.1046C37.1199 24.6456 34.8978 24.4165 34.096 24.6456L36.4666 24.1046Z" stroke="#1F1F1F"/>
<path d="M33.4809 35.6759C33.2716 37.0324 32.0706 38.2107 30.0748 38.9484C28.0971 39.6794 25.4483 39.9274 22.6047 39.4887C19.7612 39.0501 17.3102 38.0153 15.6448 36.7224C13.9641 35.4175 13.1741 33.932 13.3833 32.5755C13.5926 31.219 14.7935 30.0407 16.7894 29.303C18.767 28.572 21.4159 28.324 24.2594 28.7627C27.103 29.2013 29.5539 30.2361 31.2194 31.5291C32.9001 32.8339 33.6901 34.3194 33.4809 35.6759Z" fill="white" stroke="#1F1F1F"/>
<path d="M45.9508 14.5693C41.6838 13.6211 41.0121 15.7546 41.2097 16.9399C41.2097 19.3103 42.9876 19.3103 45.3579 19.3103H45.3584C47.729 19.3103 49.7065 15.4039 45.9508 14.5693Z" fill="white"/>
<path d="M56.6187 15.6817C53.2999 14.7334 52.0725 16.5938 52.27 17.7791C52.27 19.557 52.4702 19.903 56.6187 20.4956C59.4944 20.9064 60.7672 16.867 56.6187 15.6817Z" fill="white"/>
<path d="M45.9508 14.5693C41.6838 13.6211 41.0121 15.7546 41.2097 16.9399C41.2097 19.3103 42.9876 19.3103 45.3579 19.3103H45.3584C47.729 19.3103 49.7065 15.4039 45.9508 14.5693Z" stroke="#1F1F1F"/>
<path d="M56.6187 15.6817C53.2999 14.7334 52.0725 16.5938 52.27 17.7791C52.27 19.557 52.4702 19.903 56.6187 20.4956C59.4944 20.9064 60.7672 16.867 56.6187 15.6817Z" stroke="#1F1F1F"/>
<path d="M47.136 21.0879C47.7286 23.0634 49.5066 26.0661 51.8772 22.2732" stroke="#1F1F1F"/>
<circle cx="43.4526" cy="16.8872" r="2.37059" fill="#1F1F1F"/>
<circle cx="54.6443" cy="17.8193" r="2.37059" fill="#1F1F1F"/>
</svg>
