<svg width="22" height="21" viewBox="0 0 22 21" fill="" xmlns="http://www.w3.org/2000/svg">
<path d="M19.0744 12.6598C15.7911 15.3183 12.1064 17.1966 9.51617 20.3752C9.33376 20.5775 9.04191 20.6064 8.75006 20.5197C8.56765 20.6642 8.23932 20.693 7.98395 20.4908C4.99244 17.8034 3.20481 14.6826 1.92795 11.3595C0.906456 8.70103 -1.20949 4.56884 0.90646 2.05485C2.29277 0.378857 5.10186 0.292171 7.32726 1.24575C9.80803 2.31492 10.7566 4.27987 11.2308 6.27372C12.2158 4.8289 13.6751 3.58637 15.9735 3.3263C18.6366 3.03733 20.9715 4.45325 21.7376 6.38931C22.6496 8.75882 21.0444 11.0416 19.0744 12.6598ZM20.023 6.21594C18.892 4.42436 16.1194 4.04871 14.2223 5.14677C12.7266 5.98477 12.0699 7.34289 11.4862 8.64323C11.2673 9.16337 10.1364 9.01889 10.0634 8.46986C9.73506 6.15815 9.33376 3.06623 6.05039 2.02596C4.84649 1.50582 3.93445 1.76589 3.20481 2.74837C1.70906 3.18182 1.16184 3.96202 1.59962 5.14677C1.67259 6.18704 2.03741 7.22732 2.32926 8.23869C3.53316 12.2842 5.28428 16.1563 8.38524 19.6239C10.6836 16.6186 13.894 14.7982 17.1409 12.4576C19.2568 10.9549 21.5187 8.58545 20.023 6.21594Z" fill="#1F1F1F"/>
</svg>
